<?xml version="1.0" encoding="utf-8"?>
<!-- Generator: Adobe Illustrator 18.1.1, SVG Export Plug-In . SVG Version: 6.00 Build 0)  -->
<!DOCTYPE svg PUBLIC "-//W3C//DTD SVG 1.1//EN" "http://www.w3.org/Graphics/SVG/1.1/DTD/svg11.dtd">
<svg version="1.1" id="Layer_1" xmlns="http://www.w3.org/2000/svg" xmlns:xlink="http://www.w3.org/1999/xlink" x="0px" y="0px"
	 viewBox="0 0 200 80" enable-background="new 0 0 200 80" xml:space="preserve">
<g>
	<path d="M68,23.7h-7.3C53.4,37,36.4,52.1,20.4,52.1c-7.5,0-14.2-2.6-14.2-6.3c0-2.5,3-2.9,5-2.9c4,0.1,7.8,2.4,7.8,2.6
		c0,0.1-0.3,0.2-0.4,0.2h-0.3c-1.4-1.1-5-2.1-7.1-2.1c-1.6,0-3.4,0.9-3.4,2.6c0,4.5,9.7,5.1,11.2,5.1c17.4,0,33-14.7,39.5-27.6
		c-2.1-0.1-3.9-0.1-6-0.1c-0.8,0-1.3,0-1.8,0.1c-0.4,0-0.6-0.3-0.6-0.4c0-0.3,0.4-0.9,0.9-0.9l8.1,0.2c1.4-3,2.2-5.8,2.2-8.4
		c0-5.6-3.7-9.5-12.7-9.5c-2.4,0-5.5,0.6-8.5,1.6c-3.2,4-8.3,8.4-11,8.4c-1.1,0-1.4-0.5-1.4-1.1c0-2.9,5.7-6,11.9-7.9
		c1.1-1.6,1.9-3.3,1.9-4.7l0.6-0.3c0.3,0,0.6,0.1,0.7,0.4c0,0.9-0.8,2.5-2.1,4.2c3.8-1.1,7.7-1.9,10.4-1.9
		c8.5,0.1,12.9,3.9,12.9,9.4c0,2.9-1,6.2-2.8,9.7l6.7,0.2c0.3,0,0.6,0.2,0.6,0.6C68.7,23.5,68.5,23.6,68,23.7z M29.1,12.7
		c0,0.3,0.3,0.5,0.6,0.5c1.9,0,6.3-3.2,9.2-6.7C33.7,8.4,29.1,11,29.1,12.7z"/>
	<path d="M71.4,47.4c-2.3,1.4-6.4,4-9.1,4c-2.9,0-4.1-2.3-4.1-4.8c0-4.8,6-10.6,9.9-10.6c0.6,0,0.9,0.3,0.9,0.9
		c0,3.3-7.1,9.3-8.5,10.2c0.1,1.6,0.8,2.8,2.6,2.8c1.9,0,5.9-2.1,7.8-3.1c1.1-0.6,1.9-1.2,2.4-1.5c0.1-0.1,0.3-0.2,0.4-0.2
		c0.1,0,0.2,0.1,0.2,0.3C73.9,45.7,72.8,46.5,71.4,47.4z M66.7,37.4c-2.1,0-6.1,5.4-6.1,8.8c1.3-0.4,6.6-5.6,6.6-8
		C67.1,37.8,67,37.4,66.7,37.4z"/>
	<path d="M110.8,46.4c-3.4,2.3-6.7,5-9.7,5c-1.4,0-2.5-1.1-2.5-2.6c0-2.5,2.3-6.5,4-9c0.1-0.2,0.3-0.4,0.3-0.6
		c0-0.1-0.1-0.1-0.1-0.1c-0.3,0-0.7,0.3-0.9,0.4c-0.5,0.4-7,5.3-7.8,5.8c-0.8,0.6-3.6,3.1-5.3,4.4c-0.8,0.6-1.2,0.6-1.4,0.7
		c-0.3,0-0.4-0.3-0.4-0.6c0-2.5,4.2-5.6,4.2-8c0-0.6-0.4-1.1-1-1.1c-2.4,0-9.9,7.7-11.4,9.4c-0.3,0.3-0.8,0.9-1.4,0.9
		c-0.5,0-0.8-0.5-0.8-0.9c0-0.4,0.3-0.8,0.4-1.3c1-1.7,5.1-6.5,5.1-8.6c0-0.4-0.1-0.6-0.4-0.6c-0.2,0-0.5,0.1-0.8,0.3
		c-0.6,0.3-6.5,4.8-9.1,6.8h-0.4c-0.3,0-0.4,0-0.4-0.1c0-0.1,0.2-0.3,0.7-0.6c2.6-1.6,8.7-6.8,9.7-7.5c0.4-0.4,1.3-0.6,1.9-0.6
		c0.8,0,1.3,0.4,1.3,1.1c0,0.3-0.1,0.5-0.1,0.8c-0.1,0.5-2.5,4.3-3.2,5.6c-0.2,0.3-0.3,0.5-0.3,0.6s0.1,0.1,0.1,0.1l0.2-0.1
		c1.8-1.4,7.3-7,9.8-7c1.6,0,2.1,0.6,2.1,1.3c0,1.7-1.9,4.6-2.4,5.6c-0.1,0.1-0.1,0.2-0.1,0.3c0,0.1,0.1,0.2,0.1,0.2
		c0.3,0,0.9-0.4,0.9-0.4s12.3-9.2,13-9.8c0.4-0.4,0.9-0.5,1.3-0.5c0.3,0,0.4,0,0.6,0.1c0.2,0.1,0.3,0.3,0.3,0.6s-0.1,0.5-0.3,0.8
		c-1.9,3.1-5.7,6.9-5.7,10.7c0,1.2,0.9,1.4,1.6,1.4c2.3-0.1,5.5-2.1,7.5-3.5c0.4-0.3,0.6-0.4,0.9-0.6c0.1-0.1,0.3-0.2,0.4-0.2
		c0.1,0,0.2,0.1,0.2,0.3C111.8,45.6,111.4,46,110.8,46.4z"/>
	<path d="M125.6,48.6c-3.3,1.8-8.1,2.4-11,2.4c-4,0-4-0.8-4-0.8c0-0.3,0.3-0.4,0.7-0.4c0.3,0.1,0.7,0.2,1.2,0.2
		c4.5,0,10.3-5.8,10.3-8.5c0-0.8-0.5-0.9-1.2-0.9c-5.2,0-10.6,7.5-12.9,11.2c-0.8,1.2-13.1,25.6-13.5,26.7c-0.3,0.8-0.7,1.1-1.1,1.1
		c-0.1,0-0.3,0-0.4-0.1c-0.4-0.1-0.4-0.4-0.4-0.8c0-1.3,4.2-9.7,28.2-52.7c0.2-0.3,0.6-0.9,0.9-0.9c0.1,0,0.1,0,0.2,0.1
		c0.2,0.1,0.3,0.3,0.3,0.6c0,0.4-0.2,0.9-0.4,1.1c-0.4,0.9-10,17.7-10,18.6c0,0.1,0,0.1,0.1,0.1c0.1,0,0.1-0.2,0.4-0.5
		c1.4-1.7,6.3-6.1,10.3-6.1c0.9,0,1.9,0.4,1.9,1.5c0,5-7.3,9-7.3,9c5.5,0,9.3-2.5,11.6-4.1c0.1-0.1,0.3-0.2,0.4-0.2
		c0.1,0,0.2,0.1,0.2,0.3C130.1,45.9,127.9,47.4,125.6,48.6z"/>
	<path d="M131.9,42.7c0.1,4.5,1.4,5.9,3.7,5.9c1.8,0,5.3-2,6.5-2.8c0.4-0.3,0.6-0.4,0.9-0.6c0.1-0.1,0.3-0.2,0.4-0.2
		c0.1,0,0.2,0.1,0.2,0.3c0,0.2-0.4,0.6-0.9,1c-3.1,2.3-6.2,3.9-8,3.9c-2.8,0-4.8-2.7-4.8-5.9c0-11.5,17.3-37,24.7-37
		c1.5,0,1.5,0.9,1.5,2C155.9,23.5,133.5,42.7,131.9,42.7z M153.5,8.9c-6.9,0-21.5,25.1-21.5,32.4c0,0.2,0.1,0.3,0.1,0.3
		c1.4,0,22-19,22-31.2C154.1,9.2,154,8.9,153.5,8.9z"/>
	<path d="M153.3,50.5c-2.6,0-3.3-1.8-3.3-3.4c0-1,1-2.1,1-2.1s0-0.1-0.1-0.1c-0.4,0-5.8,5.2-8.3,5.2c-0.6,0-1.4-0.2-1.4-1.2
		c0-4.1,8.8-10.4,12-10.4c0.6,0.1,1.3,0.8,1.3,0.9c0,0.1,0,0.1-0.1,0.1c-3.2,0-7.8,4.3-9,5.5c-0.6,0.6-1.8,2.1-1.8,2.9
		c0,0.3,0.2,0.4,0.4,0.4c2.1,0,8.7-6.1,9.7-7.4c0.6-0.6,0.7-0.8,0.9-0.8c0.3,0,0.6,0.6,0.6,0.9c0,0.3-0.4,0.9-0.8,1.4
		c-0.3,0.4-2.7,3.1-2.7,4.7c0,1.3,1,1.8,1.9,1.8c3,0,7.3-2.8,8.7-3.7c0.1-0.1,0.3-0.2,0.4-0.2c0.1,0,0.2,0.1,0.2,0.3
		C163,46.2,155.8,50.5,153.3,50.5z"/>
	<path d="M182.8,24.2c-3.1,5.4-5.5,10.2-7.9,15c3.1,0,4.3-0.1,5.5-0.4c0.1,0.2,0.1,0.4,0.1,0.5c0,0.3-0.1,0.4-0.5,0.4
		c-0.6,0.1-4,0.3-5.5,0.3c-1.9,3.8-3.8,7.5-6.1,11.4c-0.4,0.8-0.8,0.9-1,0.9c-0.4,0-0.7-0.4-0.7-0.8c0-0.4,0.2-0.8,0.4-1.3
		c1-2.3,1.8-6.4,2.1-9.8c-2.9,2.8-6.2,5.5-9.4,7.3c-0.2-0.1-0.3-0.2-0.3-0.3c0-0.4,0.9-0.9,0.9-0.9c2.8-1.8,5.7-4.2,8.7-7.1
		c-5.5-1.3-12.2-4.8-12.2-12.2c0-2.4,2.3-5.1,5-5.1c4.5,0,8.3,5.3,8.3,14.7c0,0.6,0,1.1-0.1,1.7c2.9-2.9,5.8-6.1,8.4-9.5
		c0.4-0.5,2.9-5,3.6-6.1c0.3,0,0.8,0.4,0.8,0.6C183.1,23.7,183,23.9,182.8,24.2z M161.8,23.3c-2.1,0-3.1,1.5-3.1,3.5
		c0,6.2,5.9,10.2,10.8,11.7c0-0.7,0.1-1.3,0.1-1.8C169.5,32.2,167.3,23.3,161.8,23.3z M170.2,39.6c-0.1,2-0.4,4.1-0.9,6.3l-0.4,1.8
		l0.8-1.6l3.1-6.1C172,39.9,171.1,39.8,170.2,39.6z M175.1,34.5c-1.3,1.4-2.6,2.9-4.1,4.4c0.8,0.2,1.6,0.3,2.2,0.3l3-5.9L175.1,34.5
		z"/>
	<path d="M191.3,47.4c-2.3,1.4-6.4,4-9.1,4c-2.9,0-4.1-2.3-4.1-4.8c0-4.8,6-10.6,9.9-10.6c0.6,0,0.9,0.3,0.9,0.9
		c0,3.3-7.1,9.3-8.5,10.2c0.1,1.6,0.8,2.8,2.6,2.8c1.9,0,5.9-2.1,7.8-3.1c1.1-0.6,1.9-1.2,2.4-1.5c0.1-0.1,0.3-0.2,0.4-0.2
		c0.1,0,0.2,0.1,0.2,0.3C193.9,45.7,192.7,46.5,191.3,47.4z M186.6,37.4c-2.1,0-6.1,5.4-6.1,8.8c1.3-0.4,6.6-5.6,6.6-8
		C187,37.8,186.9,37.4,186.6,37.4z"/>
</g>
</svg>
